# xmcd
#
# Track frame offsets: 
#        150
#        23587
#        42197
#        54617
#        71700
#        87187
#        118512
#        133600
#        152400
#        168012
#
# Disc length: 2543 seconds
#
# Revision: 0
# Processed by: cddbd v1.5.2PL0 Copyright (c) Steve Scherf et al.
# Submitted via: ExactAudioCopy v1.3
#
DISCID=7409ed0a
DTITLE=Kingfish - In Concert [disk 2]
DYEAR=1995
DGENRE=Blues Rock
TTITLE0=C C Rider
TTITLE1=Home To Dixie
TTITLE2=Hidden Charm
TTITLE3=Bye And Bye
TTITLE4=Promised Land
TTITLE5=Lazy Lightning Supplication
TTITLE6=Jump For Joy
TTITLE7=Asia Minor
TTITLE8=New Minglewood Blues
TTITLE9=One More Saturday Night
EXTD=
EXTT0=
EXTT1=
EXTT2=
EXTT3=
EXTT4=
EXTT5=
EXTT6=
EXTT7=
EXTT8=
EXTT9=
PLAYORDER=
